<svg width="136" height="24" fill="none" xmlns="http://www.w3.org/2000/svg"><g opacity=".3"><path fill-rule="evenodd" clip-rule="evenodd" d="M124 18.27l4.151 2.505c.757.458 1.692-.221 1.491-1.083l-1.102-4.722 3.669-3.178c.668-.58.311-1.678-.571-1.752l-4.828-.41-1.889-4.458c-.345-.813-1.497-.813-1.842 0L121.19 9.63l-4.828.41c-.882.074-1.239 1.173-.571 1.752l3.669 3.178-1.102 4.722c-.201.861.734 1.54 1.491 1.083L124 18.27z" fill="#9B8869"/><mask id="a" maskUnits="userSpaceOnUse" x="115" y="4" width="18" height="17"><path fill-rule="evenodd" clip-rule="evenodd" d="M124 18.27l4.151 2.505c.757.458 1.692-.221 1.491-1.083l-1.102-4.722 3.669-3.178c.668-.58.311-1.678-.571-1.752l-4.828-.41-1.889-4.458c-.345-.813-1.497-.813-1.842 0L121.19 9.63l-4.828.41c-.882.074-1.239 1.173-.571 1.752l3.669 3.178-1.102 4.722c-.201.861.734 1.54 1.491 1.083L124 18.27z" fill="#fff"/></mask><g mask="url(#a)"><path fill="#9B8869" d="M112 0h24v24h-24z"/></g></g><path fill-rule="evenodd" clip-rule="evenodd" d="M96 18.27l4.151 2.505c.757.458 1.692-.221 1.491-1.083l-1.102-4.722 3.669-3.178c.668-.58.311-1.678-.571-1.752l-4.828-.41-1.89-4.458c-.344-.813-1.496-.813-1.84 0L93.19 9.63l-4.828.41c-.882.074-1.24 1.173-.57 1.752l3.668 3.178-1.102 4.722c-.2.861.734 1.54 1.491 1.083L96 18.27z" fill="#9B8869"/><mask id="b" maskUnits="userSpaceOnUse" x="87" y="4" width="18" height="17"><path fill-rule="evenodd" clip-rule="evenodd" d="M96 18.27l4.151 2.505c.757.458 1.692-.221 1.491-1.083l-1.102-4.722 3.669-3.178c.668-.58.311-1.678-.571-1.752l-4.828-.41-1.89-4.458c-.344-.813-1.496-.813-1.84 0L93.19 9.63l-4.828.41c-.882.074-1.24 1.173-.57 1.752l3.668 3.178-1.102 4.722c-.2.861.734 1.54 1.491 1.083L96 18.27z" fill="#fff"/></mask><g mask="url(#b)"><path fill="#9B8869" d="M84 0h24v24H84z"/></g><path fill-rule="evenodd" clip-rule="evenodd" d="M68 18.27l4.151 2.505c.757.458 1.692-.221 1.49-1.083L72.54 14.97l3.669-3.178c.668-.58.31-1.678-.57-1.752l-4.829-.41-1.89-4.458c-.344-.813-1.496-.813-1.84 0L65.19 9.63l-4.828.41c-.882.074-1.24 1.173-.57 1.752l3.668 3.178-1.102 4.722c-.2.861.734 1.54 1.491 1.083L68 18.27z" fill="#9B8869"/><mask id="c" maskUnits="userSpaceOnUse" x="59" y="4" width="18" height="17"><path fill-rule="evenodd" clip-rule="evenodd" d="M68 18.27l4.151 2.505c.757.458 1.692-.221 1.49-1.083L72.54 14.97l3.669-3.178c.668-.58.31-1.678-.57-1.752l-4.829-.41-1.89-4.458c-.344-.813-1.496-.813-1.84 0L65.19 9.63l-4.828.41c-.882.074-1.24 1.173-.57 1.752l3.668 3.178-1.102 4.722c-.2.861.734 1.54 1.491 1.083L68 18.27z" fill="#fff"/></mask><g mask="url(#c)"><path fill="#9B8869" d="M56 0h24v24H56z"/></g><path fill-rule="evenodd" clip-rule="evenodd" d="M40 18.27l4.151 2.505c.757.458 1.691-.221 1.49-1.083L44.54 14.97l3.669-3.178c.668-.58.31-1.678-.57-1.752l-4.829-.41-1.89-4.458c-.344-.813-1.496-.813-1.84 0L37.19 9.63l-4.828.41c-.882.074-1.24 1.173-.57 1.752l3.668 3.178-1.102 4.722c-.2.861.734 1.54 1.491 1.083L40 18.27z" fill="#9B8869"/><mask id="d" maskUnits="userSpaceOnUse" x="31" y="4" width="18" height="17"><path fill-rule="evenodd" clip-rule="evenodd" d="M40 18.27l4.151 2.505c.757.458 1.691-.221 1.49-1.083L44.54 14.97l3.669-3.178c.668-.58.31-1.678-.57-1.752l-4.829-.41-1.89-4.458c-.344-.813-1.496-.813-1.84 0L37.19 9.63l-4.828.41c-.882.074-1.24 1.173-.57 1.752l3.668 3.178-1.102 4.722c-.2.861.734 1.54 1.491 1.083L40 18.27z" fill="#fff"/></mask><g mask="url(#d)"><path fill="#9B8869" d="M28 0h24v24H28z"/></g><path fill-rule="evenodd" clip-rule="evenodd" d="M12 18.27l4.151 2.505c.757.458 1.692-.221 1.49-1.083L16.54 14.97l3.669-3.178c.668-.58.31-1.678-.57-1.752l-4.829-.41-1.89-4.458c-.344-.813-1.496-.813-1.84 0L9.19 9.63l-4.828.41c-.882.074-1.24 1.173-.57 1.752L7.46 14.97l-1.102 4.722c-.2.861.734 1.54 1.491 1.083L12 18.27z" fill="#9B8869"/><mask id="e" maskUnits="userSpaceOnUse" x="3" y="4" width="18" height="17"><path fill-rule="evenodd" clip-rule="evenodd" d="M12 18.27l4.151 2.505c.757.458 1.692-.221 1.49-1.083L16.54 14.97l3.669-3.178c.668-.58.31-1.678-.57-1.752l-4.829-.41-1.89-4.458c-.344-.813-1.496-.813-1.84 0L9.19 9.63l-4.828.41c-.882.074-1.24 1.173-.57 1.752L7.46 14.97l-1.102 4.722c-.2.861.734 1.54 1.491 1.083L12 18.27z" fill="#fff"/></mask><g mask="url(#e)"><path fill="#9B8869" d="M0 0h24v24H0z"/></g></svg>