<svg width="74" height="74" fill="none" xmlns="http://www.w3.org/2000/svg"><g filter="url(#filter0_d)"><path fill="#9B8869" d="M12 8h50v50H12z"/></g><path fill-rule="evenodd" clip-rule="evenodd" d="M39.936 35.167l-.303-.293a7.01 7.01 0 001.7-4.582 7.041 7.041 0 10-7.041 7.041 7.01 7.01 0 004.582-1.7l.293.303v.856l4.71 4.7a1 1 0 001.413 0l.201-.202a1 1 0 000-1.414l-4.7-4.71h-.855zm-10.52-4.875a4.868 4.868 0 014.876-4.875 4.868 4.868 0 014.875 4.875 4.868 4.868 0 01-4.875 4.875 4.868 4.868 0 01-4.875-4.875z" fill="#F2F5F7"/><mask id="a" maskUnits="userSpaceOnUse" x="27" y="23" width="19" height="19"><path fill-rule="evenodd" clip-rule="evenodd" d="M39.936 35.167l-.303-.293a7.01 7.01 0 001.7-4.582 7.041 7.041 0 10-7.041 7.041 7.01 7.01 0 004.582-1.7l.293.303v.856l4.71 4.7a1 1 0 001.413 0l.201-.202a1 1 0 000-1.414l-4.7-4.71h-.855zm-10.52-4.875a4.868 4.868 0 014.876-4.875 4.868 4.868 0 014.875 4.875 4.868 4.868 0 01-4.875 4.875 4.868 4.868 0 01-4.875-4.875z" fill="#fff"/></mask><g mask="url(#a)"><path fill="#F2F5F7" d="M24 20h26v26H24z"/></g><path fill-rule="evenodd" clip-rule="evenodd" d="M34.833 27.583H33.75v2.167h-2.167v1.083h2.167V33h1.083v-2.167H37V29.75h-2.167v-2.167z" fill="#F2F5F7"/><defs><filter id="filter0_d" x="0" y="0" width="74" height="74" filterUnits="userSpaceOnUse" color-interpolation-filters="sRGB"><feFlood flood-opacity="0" result="BackgroundImageFix"/><feColorMatrix in="SourceAlpha" values="0 0 0 0 0 0 0 0 0 0 0 0 0 0 0 0 0 0 127 0"/><feOffset dy="4"/><feGaussianBlur stdDeviation="6"/><feColorMatrix values="0 0 0 0 0.117904 0 0 0 0 0.0777445 0 0 0 0 0.0175054 0 0 0 0.2 0"/><feBlend in2="BackgroundImageFix" result="effect1_dropShadow"/><feBlend in="SourceGraphic" in2="effect1_dropShadow" result="shape"/></filter></defs></svg>