<svg width="93" height="16" fill="none" xmlns="http://www.w3.org/2000/svg"><path fill-rule="evenodd" clip-rule="evenodd" d="M84.794 12.18l2.2 1.294c.76.447 1.684-.237 1.479-1.095l-.574-2.399 1.885-1.592c.681-.576.326-1.687-.563-1.76l-2.505-.208-1.005-2.31c-.348-.802-1.485-.802-1.834 0l-1.004 2.31-2.506.207c-.889.074-1.244 1.185-.563 1.76L81.69 9.98l-.574 2.4c-.205.857.72 1.541 1.48 1.094l2.2-1.294z" fill="#9B8869"/><mask id="a" maskUnits="userSpaceOnUse" x="79" y="3" width="12" height="11"><path fill-rule="evenodd" clip-rule="evenodd" d="M84.794 12.18l2.2 1.294c.76.447 1.684-.237 1.479-1.095l-.574-2.399 1.885-1.592c.681-.576.326-1.687-.563-1.76l-2.505-.208-1.005-2.31c-.348-.802-1.485-.802-1.834 0l-1.004 2.31-2.506.207c-.889.074-1.244 1.185-.563 1.76L81.69 9.98l-.574 2.4c-.205.857.72 1.541 1.48 1.094l2.2-1.294z" fill="#fff"/></mask><g mask="url(#a)"><path fill="#9B8869" d="M76.588 0H93v16H76.588z"/></g><path fill-rule="evenodd" clip-rule="evenodd" d="M65.647 12.18l2.2 1.294c.76.447 1.684-.237 1.479-1.095l-.574-2.399 1.885-1.592c.681-.576.326-1.687-.563-1.76l-2.505-.208-1.005-2.31c-.348-.802-1.485-.802-1.834 0l-1.005 2.31-2.505.207c-.889.074-1.244 1.185-.563 1.76l1.886 1.593-.575 2.4c-.205.857.72 1.541 1.48 1.094l2.199-1.294z" fill="#9B8869"/><mask id="b" maskUnits="userSpaceOnUse" x="60" y="3" width="11" height="11"><path fill-rule="evenodd" clip-rule="evenodd" d="M65.647 12.18l2.2 1.294c.76.447 1.684-.237 1.479-1.095l-.574-2.399 1.885-1.592c.681-.576.326-1.687-.563-1.76l-2.505-.208-1.005-2.31c-.348-.802-1.485-.802-1.834 0l-1.005 2.31-2.505.207c-.889.074-1.244 1.185-.563 1.76l1.886 1.593-.575 2.4c-.205.857.72 1.541 1.48 1.094l2.199-1.294z" fill="#fff"/></mask><g mask="url(#b)"><path fill="#9B8869" d="M57.441 0h16.412v16H57.441z"/></g><path fill-rule="evenodd" clip-rule="evenodd" d="M46.5 12.18l2.199 1.294c.76.447 1.685-.237 1.48-1.095l-.574-2.399 1.885-1.592c.681-.576.326-1.687-.563-1.76l-2.505-.208-1.005-2.31c-.349-.802-1.486-.802-1.834 0l-1.005 2.31-2.505.207c-.889.074-1.244 1.185-.563 1.76l1.886 1.593-.575 2.4c-.205.857.72 1.541 1.48 1.094L46.5 12.18z" fill="#9B8869"/><mask id="c" maskUnits="userSpaceOnUse" x="41" y="3" width="11" height="11"><path fill-rule="evenodd" clip-rule="evenodd" d="M46.5 12.18l2.199 1.294c.76.447 1.685-.237 1.48-1.095l-.574-2.399 1.885-1.592c.681-.576.326-1.687-.563-1.76l-2.505-.208-1.005-2.31c-.349-.802-1.486-.802-1.834 0l-1.005 2.31-2.505.207c-.889.074-1.244 1.185-.563 1.76l1.886 1.593-.575 2.4c-.205.857.72 1.541 1.48 1.094L46.5 12.18z" fill="#fff"/></mask><g mask="url(#c)"><path fill="#9B8869" d="M38.294 0h16.412v16H38.294z"/></g><path fill-rule="evenodd" clip-rule="evenodd" d="M27.353 12.18l2.199 1.294c.76.447 1.685-.237 1.48-1.095l-.575-2.399 1.886-1.592c.68-.576.325-1.687-.563-1.76l-2.506-.208-1.004-2.31c-.348-.802-1.486-.802-1.834 0L25.43 6.42l-2.505.207c-.889.074-1.244 1.185-.563 1.76l1.885 1.593-.574 2.4c-.205.857.72 1.541 1.48 1.094l2.199-1.294z" fill="#9B8869"/><mask id="d" maskUnits="userSpaceOnUse" x="22" y="3" width="11" height="11"><path fill-rule="evenodd" clip-rule="evenodd" d="M27.353 12.18l2.199 1.294c.76.447 1.685-.237 1.48-1.095l-.575-2.399 1.886-1.592c.68-.576.325-1.687-.563-1.76l-2.506-.208-1.004-2.31c-.348-.802-1.486-.802-1.834 0L25.43 6.42l-2.505.207c-.889.074-1.244 1.185-.563 1.76l1.885 1.593-.574 2.4c-.205.857.72 1.541 1.48 1.094l2.199-1.294z" fill="#fff"/></mask><g mask="url(#d)"><path fill="#9B8869" d="M19.147 0h16.412v16H19.147z"/></g><path fill-rule="evenodd" clip-rule="evenodd" d="M8.206 12.18l2.199 1.294c.76.447 1.685-.237 1.48-1.095L11.31 9.98l1.886-1.592c.68-.576.325-1.687-.563-1.76l-2.506-.208-1.004-2.31c-.349-.802-1.486-.802-1.834 0L6.284 6.42l-2.505.207c-.889.074-1.244 1.185-.563 1.76L5.101 9.98l-.574 2.4c-.205.857.72 1.541 1.48 1.094l2.199-1.294z" fill="#9B8869"/><mask id="e" maskUnits="userSpaceOnUse" x="2" y="3" width="12" height="11"><path fill-rule="evenodd" clip-rule="evenodd" d="M8.206 12.18l2.199 1.294c.76.447 1.685-.237 1.48-1.095L11.31 9.98l1.886-1.592c.68-.576.325-1.687-.563-1.76l-2.506-.208-1.004-2.31c-.349-.802-1.486-.802-1.834 0L6.284 6.42l-2.505.207c-.889.074-1.244 1.185-.563 1.76L5.101 9.98l-.574 2.4c-.205.857.72 1.541 1.48 1.094l2.199-1.294z" fill="#fff"/></mask><g mask="url(#e)"><path fill="#9B8869" d="M0 0h16.412v16H0z"/></g></svg>