<svg width="74" height="74" fill="none" xmlns="http://www.w3.org/2000/svg"><g filter="url(#filter0_d)"><path fill="#BA4F4F" d="M12 8h50v50H12z"/><path fill-rule="evenodd" clip-rule="evenodd" d="M23 26a1 1 0 110-2h3.446l3.842 8.257h7.266l3.65-6.374a1 1 0 111.735.994l-4.226 7.38H29.67L29 35.743h10.502a1 1 0 010 2H29a2 2 0 01-1.823-2.82l1.05-2.334.005-.01L25.171 26H23zm7 17a2 2 0 100-4 2 2 0 000 4zm10-2a2 2 0 11-4 0 2 2 0 014 0zm8-11a1 1 0 112 0v2h2a1 1 0 110 2h-2v2a1 1 0 11-2 0v-2h-2a1 1 0 110-2h2v-2z" fill="#F2F5F7"/></g><defs><filter id="filter0_d" x="0" y="0" width="74" height="74" filterUnits="userSpaceOnUse" color-interpolation-filters="sRGB"><feFlood flood-opacity="0" result="BackgroundImageFix"/><feColorMatrix in="SourceAlpha" values="0 0 0 0 0 0 0 0 0 0 0 0 0 0 0 0 0 0 127 0"/><feOffset dy="4"/><feGaussianBlur stdDeviation="6"/><feColorMatrix values="0 0 0 0 0.117904 0 0 0 0 0.0777445 0 0 0 0 0.0175054 0 0 0 0.2 0"/><feBlend in2="BackgroundImageFix" result="effect1_dropShadow"/><feBlend in="SourceGraphic" in2="effect1_dropShadow" result="shape"/></filter></defs></svg>