<svg width="50" height="50" viewBox="0 0 50 50" fill="none" xmlns="http://www.w3.org/2000/svg">
<rect width="50" height="50" fill="#BA4F4F"/>
<path fill-rule="evenodd" clip-rule="evenodd" d="M11 18C10.4477 18 10 17.5523 10 17C10 16.4477 10.4477 16 11 16H14.4458L18.2885 24.2572H25.5538L29.2034 17.8829C29.4778 17.4036 30.0888 17.2376 30.5681 17.512C31.0474 17.7864 31.2135 18.3974 30.939 18.8767L26.7133 26.2572H17.6697L17.0002 27.7435H27.5021C28.0544 27.7435 28.5021 28.1913 28.5021 28.7435C28.5021 29.2958 28.0544 29.7435 27.5021 29.7435H17.0002C16.7171 29.7435 16.4371 29.6834 16.1789 29.5671C15.1718 29.1135 14.7231 27.9293 15.1767 26.9222L16.2274 24.5893L16.2322 24.5789L13.1706 18H11ZM18 35C19.1046 35 20 34.1046 20 33C20 31.8954 19.1046 31 18 31C16.8954 31 16 31.8954 16 33C16 34.1046 16.8954 35 18 35ZM28 33C28 34.1046 27.1046 35 26 35C24.8954 35 24 34.1046 24 33C24 31.8954 24.8954 31 26 31C27.1046 31 28 31.8954 28 33ZM36 22C36 21.4477 36.4477 21 37 21C37.5523 21 38 21.4477 38 22V24H40C40.5523 24 41 24.4477 41 25C41 25.5523 40.5523 26 40 26H38V28C38 28.5523 37.5523 29 37 29C36.4477 29 36 28.5523 36 28V26H34C33.4477 26 33 25.5523 33 25C33 24.4477 33.4477 24 34 24H36V22Z" fill="#F2F5F7"/>
</svg>
